<?xml version="1.0" encoding="UTF-8"?>
<svg width="500" height="500" version="1.1" viewBox="0 0 500 500" xmlns="http://www.w3.org/2000/svg">
 <g fill="#235c2d">
  <circle cx="250" cy="250" r="240" fill="none" stroke="#235c2d" stroke-width="20"/>
  <path d="m250 100c-30 0-60 20-60 50 0 20 10 30 30 50 10 10 30 20 30 40-20 0-40-10-50-20-10 20-10 40 0 60 20 30 50 40 80 30 30-10 50-40 40-70-10-20-30-30-50-40-10-10-20-20-20-30 20 0 40 10 50 20 10-20 10-40 0-60-10-20-30-30-50-30z"/>
  <path d="m170 290c-20-30-20-60 0-90 10-10 20-20 30-20-20 0-40 10-50 30-10 20-10 40 0 60 10 10 20 20 30 20-10 0-20 0-10 0z"/>
  <path d="m330 290c20-30 20-60 0-90-10-10-20-20-30-20 20 0 40 10 50 30 10 20 10 40 0 60-10 10-20 20-30 20 10 0 20 0 10 0z"/>
 </g>
</svg>
